<svg width="1440" height="847" viewBox="0 0 1440 847" fill="none" xmlns="http://www.w3.org/2000/svg">
<g clip-path="url(#clip0_546_6433)">
<path d="M1686.01 245.574C1678.77 190.134 1634.16 143.789 1581.2 124.813C1528.24 105.866 1468.75 111.396 1415.73 130.231C1358.25 150.667 1304.61 188.478 1277.86 242.964C1251.11 297.45 1256.97 369.592 1301.27 411.305C1270.76 412.933 1239.27 418.407 1214.21 435.783C1189.13 453.131 1172.17 484.823 1179.89 514.185C1153.48 509.525 1124.92 526.424 1116.5 551.688C1087.82 551.828 1059.38 563.702 1039.25 583.969C1015.72 562.86 976.647 561.597 951.765 581.134C955.611 578.102 911.784 557.667 907.713 556.769C888.712 552.558 867.93 554.214 850.031 561.877C823.396 573.302 830.21 580.685 814.348 557.133C802.642 539.758 788.476 525.329 765.658 525.273C759.07 525.273 752.539 526.452 746.233 528.277C705.715 540.01 675.715 580.797 676.846 622.707C676.337 604.321 624.113 630.82 618.515 634.806C599.118 648.617 584.047 666.61 579.778 690.611C561.823 677.193 532.304 683.874 522.04 703.72C530.89 690.526 508.157 675.902 492.351 673.684C476.517 671.466 461.39 680.112 448.214 689.095C449.656 647.157 440.721 604.91 422.398 567.099C416.574 555.112 409.505 543.182 398.591 535.463C387.677 527.743 372.097 525.189 360.9 532.515C390.448 495.771 397.46 442.492 378.459 399.431C359.43 356.37 315.208 325.408 267.96 322.096C294.001 301.632 287.413 260.649 273.191 230.837C254.982 192.661 226.339 157.067 186.612 141.937C146.886 126.806 95.3404 138.007 74.1058 174.611C91.4101 165.348 92.7108 140.505 85.4158 122.371C68.7335 80.8544 20.3831 57.5555 -24.5178 60.7276C-69.4187 63.8996 -110.276 89.2476 -141.69 121.248C-152.745 132.533 -163.518 148.842 -156.393 162.878C-155.121 140.196 -180.964 122.764 -203.612 126.105C-226.261 129.473 -244.074 147.663 -254.819 167.734C-270.426 196.928 -271.246 239.315 -243.197 257.084C-265.28 269.547 -269.946 304.495 -271.699 329.647C-278.372 424.667 -272.575 520.529 -254.508 614.061C-251.708 628.574 -248.485 643.339 -241.02 656.112C-234.121 667.929 -223.886 677.445 -213.424 686.316C-90.5685 790.487 78.3753 822.516 239.798 829.955C497.356 841.801 755.79 801.014 1012.75 821.983C1158.82 833.913 1305.32 814.46 1450.93 798.235C1518.96 790.655 1593.75 778.36 1637.21 725.84C1663.62 693.923 1673.8 652.125 1683.24 611.9C1694.5 563.955 1705.81 515.532 1706.48 466.296C1707.59 388.09 1696.14 323.247 1686.01 245.574Z" fill="white"/>
<path d="M825.49 215.801C829.024 215.829 832.87 215.745 835.528 213.443C840.674 209.008 836.574 199.717 830.099 197.611C823.624 195.506 816.64 198.116 810.335 200.699C818.619 185.344 815.99 164.881 804.001 152.164C792.012 139.448 771.541 135.49 755.679 142.901C739.788 150.312 729.779 168.53 732.21 185.793C727.291 150.929 659.317 189.695 699.722 209.626C715.217 217.289 738.261 214.145 754.887 214.566C778.384 215.127 801.937 215.549 825.49 215.801Z" fill="white"/>
<path d="M1070.83 98.6796C1073.55 98.7077 1076.52 98.6515 1078.55 96.8831C1082.51 93.4584 1079.37 86.3284 1074.37 84.7003C1069.39 83.1002 1064.02 85.0933 1059.18 87.0582C1065.54 75.2685 1063.54 59.5207 1054.32 49.752C1045.1 39.9833 1029.38 36.9236 1017.17 42.622C1004.95 48.3204 997.26 62.3278 999.126 75.6053C995.338 48.7976 943.113 78.6089 974.131 93.9356C986.035 99.8305 1003.76 97.4164 1016.54 97.7252C1034.64 98.1743 1052.74 98.4831 1070.83 98.6796Z" fill="white"/>
<path d="M613.68 520.165C615.603 520.193 617.695 520.136 619.137 518.873C621.936 516.459 619.702 511.406 616.168 510.256C612.634 509.105 608.845 510.536 605.424 511.94C609.948 503.575 608.506 492.43 601.974 485.525C595.442 478.591 584.302 476.458 575.678 480.472C567.054 484.486 561.597 494.423 562.898 503.827C560.212 484.851 523.228 505.933 545.198 516.796C553.624 520.95 566.178 519.266 575.226 519.491C588.034 519.8 600.871 520.024 613.68 520.165Z" fill="white"/>
<path d="M1270.34 166.078C1272.26 166.106 1274.36 166.05 1275.8 164.787C1278.6 162.373 1276.36 157.32 1272.83 156.169C1269.29 155.018 1265.51 156.45 1262.08 157.854C1266.61 149.488 1265.17 138.344 1258.64 131.439C1252.1 124.505 1240.96 122.372 1232.34 126.386C1223.69 130.428 1218.26 140.337 1219.56 149.741C1216.87 130.765 1179.89 151.846 1201.86 162.71C1210.28 166.864 1222.84 165.18 1231.89 165.405C1244.72 165.713 1257.53 165.966 1270.34 166.078Z" fill="white"/>
<path d="M1206.75 636.379L1200.33 651.004L1109.37 858.589L656.573 841.915L524.189 768.257L519.892 765.871C519.892 765.871 605.311 760.2 632.653 747.372C659.995 734.544 750.56 692.353 760.796 674.865C771.059 657.348 861.596 629.586 885.517 624.505C909.438 619.397 1022.23 651.65 1049.57 653.699C1076.91 655.777 1198.21 648.253 1206.75 636.379Z" fill="#ACBBBF"/>
<path d="M1206.75 636.379L1200.33 651.004C1177.94 654.148 1158 655.692 1137.19 665.461C1113.87 676.409 1092.49 683.286 1066.19 682.388C1039.87 681.489 1014.14 674.472 989.173 666.078C960.135 656.282 929.259 644.408 899.683 652.492C894.084 672.17 887.977 692.718 873.5 707.259C856.394 724.438 830.72 729.996 806.431 731.4C782.143 732.831 757.402 730.978 733.793 736.817C714.877 741.505 697.459 750.937 678.826 756.691C653.491 764.523 626.602 765.337 600.08 766.095C574.802 766.825 549.496 767.527 524.189 768.257L519.892 765.871C519.892 765.871 605.311 760.2 632.653 747.372C659.995 734.543 750.56 692.353 760.796 674.865C771.059 657.348 861.596 629.586 885.517 624.505C909.438 619.397 1022.23 651.65 1049.57 653.699C1076.91 655.777 1198.21 648.253 1206.75 636.379Z" fill="#B5C4C9"/>
<path d="M1572.4 297.115V858.59L882.886 833.185L841.096 831.641C841.096 831.641 866.741 821.283 878.702 811.402C890.662 801.521 948.739 773.787 974.385 756.804C1000 739.85 1082.03 694.038 1109.37 674.865C1136.71 655.665 1205.05 590.569 1211.9 582.316C1218.71 574.035 1300.74 558.343 1310.97 548.153C1321.24 537.992 1370.77 468.432 1382.73 443C1394.72 417.539 1471.6 335.713 1471.6 335.713C1471.6 335.713 1558.75 300.512 1572.4 297.115Z" fill="#B5C4C9"/>
<path d="M1410.02 671.103C1398.14 669.026 1385.42 667.033 1374.45 671.974C1361.53 677.812 1354.63 691.567 1346.51 703.132C1326.86 731.091 1294.71 750.039 1260.56 753.744C1252.87 754.586 1244.5 754.895 1238.45 759.667C1233.78 763.345 1231.32 769.071 1227.79 773.843C1214.86 791.303 1190.29 793.914 1169.11 799.107C1127.44 809.297 1089.97 835.431 1066.19 870.884C1179.8 868.105 1293.38 865.298 1406.99 862.519C1448.7 861.508 1490.63 860.442 1531.54 852.47C1535.81 851.628 1540.31 850.617 1543.53 847.698C1547.27 844.329 1548.59 839.136 1549.58 834.224C1556.43 800.96 1568.02 726.572 1539.55 699.792C1513.42 675.286 1443.69 677.055 1410.02 671.103Z" fill="#8CA6AD"/>
<path d="M1572.4 297.115V394.044C1548.74 396.29 1524.67 402.297 1501.49 406.086C1492.55 407.546 1483.28 409.146 1475.82 414.283C1468.75 419.196 1464.11 426.803 1460.09 434.382C1446.15 460.881 1437.59 489.85 1424.47 516.77C1411.32 543.69 1392.35 569.487 1364.86 581.726C1344.56 590.793 1321.6 591.467 1301.3 600.281C1281.85 608.702 1270.62 618.387 1247.01 616.366C1238.76 615.664 1230.44 613.895 1222.3 615.383C1203.38 618.892 1195.75 643.314 1187.1 657.153C1176.81 673.63 1159.73 685.336 1142.03 692.803C1118.3 702.796 1092.49 706.529 1067.72 713.547C1060.74 715.54 1053.67 717.842 1047.82 722.109C1042.16 726.235 1037.98 731.962 1033.42 737.239C1023.19 749.141 1010.92 759.134 998.334 768.566C971.274 788.918 942.547 807.079 912.547 822.827C898.834 830.013 890.549 834.336 875.45 833.045C864.055 832.062 852.547 832.034 841.124 831.613C841.124 831.613 866.77 821.255 878.73 811.374C890.69 801.493 948.767 773.759 974.413 756.776C1000.03 739.821 1082.06 694.01 1109.4 674.837C1136.74 655.637 1205.08 590.54 1211.92 582.288C1218.74 574.007 1300.76 558.315 1311 548.125C1321.26 537.964 1370.8 468.404 1382.76 442.972C1394.75 417.511 1471.63 335.685 1471.63 335.685C1471.63 335.685 1558.75 300.512 1572.4 297.115Z" fill="#CED8DB"/>
<path d="M734.301 851.234H-164.451V352.582C-164.451 352.582 -125.149 378.463 -102.953 383.207C-80.7286 387.951 -7.26987 394.801 4.69051 393.088C16.6509 391.348 125.764 487.182 131.08 503.968C136.424 520.727 279.185 595.873 305.453 610.189C331.72 624.477 407.95 653.334 426.725 673.32C445.528 693.307 517.29 759.245 542.935 766.965C568.553 774.712 595.895 800.987 631.776 803.962C667.657 806.966 734.301 851.234 734.301 851.234Z" fill="#B5C4C9"/>
<path d="M734.301 851.234H670.569C653.265 846.939 637.459 840.23 620.749 829.198C592.191 810.306 556.027 811.429 524.839 798.938C459.383 772.719 430.57 694.121 369.779 658.499C352.474 648.337 333.219 642.105 314.105 635.902C257.159 617.487 200.213 599.073 143.239 580.63C137.668 578.834 132.07 577.009 127.037 574.033C120.194 569.963 114.794 563.956 109.478 558.061C79.3651 524.881 46.057 491.645 3.13536 478.368C-51.0397 461.609 -113.245 479.07 -164.451 455.518V352.582C-164.451 352.582 -125.149 378.463 -102.953 383.207C-80.7286 387.951 -7.26987 394.801 4.69051 393.088C16.6509 391.348 125.764 487.182 131.08 503.968C136.424 520.727 279.185 595.873 305.453 610.189C331.72 624.477 407.95 653.334 426.725 673.32C445.528 693.307 517.29 759.245 542.935 766.965C568.553 774.712 595.895 800.987 631.776 803.962C667.657 806.966 734.301 851.234 734.301 851.234Z" fill="#CED8DB"/>
<path d="M503.699 853.535H1646.08V219.709C1646.08 219.709 1596.13 252.607 1567.92 258.637C1539.67 264.667 1446.29 273.373 1431.09 271.196C1415.89 268.984 1277.2 390.797 1270.44 412.133C1263.65 433.435 1082.19 528.951 1048.8 547.148C1015.41 565.309 918.517 601.989 894.653 627.393C870.753 652.798 779.538 736.611 746.94 746.423C714.378 756.271 679.625 789.667 634.017 793.45C588.409 797.267 503.699 853.535 503.699 853.535Z" fill="#B5C4C9"/>
<path d="M503.699 853.535H584.707C606.702 848.076 626.793 839.549 648.033 825.526C684.333 801.513 730.3 802.941 769.942 787.063C853.142 753.737 889.765 653.832 967.036 608.554C989.031 595.638 1013.51 587.717 1037.8 579.831C1110.18 556.425 1182.57 533.018 1254.99 509.577C1262.07 507.293 1269.18 504.974 1275.58 501.192C1284.28 496.018 1291.14 488.382 1297.9 480.89C1336.18 438.715 1378.51 396.47 1433.07 379.593C1501.93 358.292 1581 380.485 1646.08 350.549V219.709C1646.08 219.709 1596.13 252.607 1567.92 258.637C1539.67 264.667 1446.29 273.373 1431.09 271.196C1415.89 268.984 1277.2 390.797 1270.44 412.133C1263.65 433.435 1082.19 528.951 1048.8 547.148C1015.41 565.309 918.517 601.989 894.653 627.393C870.753 652.798 779.538 736.611 746.94 746.423C714.378 756.271 679.625 789.667 634.017 793.45C588.409 797.267 503.699 853.535 503.699 853.535Z" fill="#CED8DB"/>
<path d="M795.554 861.734L1443.76 846.825V573.433C1423.08 589.422 1330.93 581.952 1292.47 581.952C1253.97 581.952 1034.15 558.493 1002.22 551.579C970.291 544.633 857.551 552.906 851.892 551.579H851.644C845.767 552.35 829.382 623.098 831.247 632.297C832.957 640.94 855.561 702.057 855.997 720.145C856.059 721.627 855.934 722.831 855.655 723.695C851.892 734.9 810.571 759.162 806.809 770.336C803.047 781.541 795.554 861.734 795.554 861.734Z" fill="#556077"/>
<path d="M831.247 632.298C832.957 640.941 855.561 702.058 855.996 720.147C875.273 724.653 913.641 732.987 912.708 727.03C911.464 719.128 880.435 661.869 880.435 661.869C880.435 661.869 848.441 596.955 851.892 551.58H851.643C845.767 552.351 829.382 623.099 831.247 632.298Z" fill="#394559"/>
<path d="M795.553 861.735H1594.06V473.762C1593.34 473.731 1592.6 473.701 1591.85 473.701C1575.49 473.021 1503.17 466.694 1490.74 473.762C1477.59 481.232 1396.78 599.64 1383.63 614.116C1370.47 628.593 1336.65 650.972 1306.58 652.824C1276.55 654.707 1173.1 691.995 1144.96 693.878C1116.83 695.73 1078.8 690.143 1056.48 706.935C1034.15 723.696 974.021 775.923 942.09 790.863C910.158 805.772 850.026 813.242 836.875 818.829C823.723 824.447 795.553 861.735 795.553 861.735Z" fill="#394559"/>
<path d="M795.554 861.735H813.432C845.705 850.777 879.098 839.325 880.435 838.461C878.165 838.461 994.325 774.04 1011.43 763.731C1028.53 753.421 1194.81 729.097 1194.81 729.097C1194.81 729.097 1331.8 712.182 1366.09 695.73C1400.39 679.277 1490.12 518.489 1490.12 518.489C1490.12 518.489 1557.06 473.701 1591.85 473.701C1575.5 473.021 1503.18 466.694 1490.74 473.762C1477.59 481.232 1396.78 599.64 1383.63 614.116C1370.47 628.593 1336.65 650.972 1306.58 652.824C1276.55 654.707 1173.1 691.995 1144.97 693.878C1116.83 695.73 1078.8 690.143 1056.48 706.935C1034.15 723.696 974.022 775.923 942.09 790.863C910.159 805.772 850.027 813.242 836.875 818.829C823.723 824.447 795.554 861.735 795.554 861.735Z" fill="#455060"/>
<path opacity="0.45" d="M1626.17 580.716C1602.73 585.654 1534.58 638.777 1528.17 654.52C1521.77 670.262 1448.61 711.809 1427.68 729.095C1406.76 746.381 1308.76 773.884 1276.79 767.525C1244.83 761.166 1063.13 801.942 1063.13 801.942L986.334 903.589H1670.92L1626.17 580.716Z" fill="#394559"/>
<path d="M1369.57 800.619C1389.6 767.93 1402.65 731.044 1407.6 693.108C1410.55 670.451 1409.34 644.306 1392.15 629.12C1388.23 625.693 1382.82 622.885 1377.94 624.767C1372.43 626.866 1370.63 633.565 1369.63 639.337C1361.4 687.583 1359.56 736.878 1364.16 785.587C1364.72 753.299 1363.91 720.518 1354.74 689.527C1345.54 658.536 1327.01 629.181 1298.9 612.853C1297.25 611.896 1295.45 610.97 1293.55 611.155C1289.6 611.556 1287.83 616.279 1287.33 620.199C1285.1 638.071 1290.6 655.944 1296.51 672.982C1308.07 706.443 1321.44 739.316 1336.46 771.388C1321.35 729.655 1290.1 693.941 1250.58 673.26C1242.72 669.124 1231.4 666.284 1226.21 673.476C1224.4 675.976 1223.88 679.156 1223.81 682.212C1223.5 696.719 1232.21 709.807 1241.29 721.197C1263.21 748.607 1289.54 772.53 1318.99 791.791C1299.83 769.721 1273.31 754.04 1244.61 747.836C1241.04 747.064 1237.06 746.508 1233.92 748.36C1227.58 752.126 1229.75 761.85 1233.7 768.054C1247.35 789.723 1271.14 802.625 1293.86 814.633C1314.17 825.344 1337.24 836.394 1359.25 829.789C1377.28 824.387 1385.18 809.447 1398.89 798.489C1411.17 788.673 1420.66 781.481 1427.9 766.603C1429.98 762.313 1431.66 756.942 1428.9 753.052C1426.66 749.873 1422.09 748.978 1418.29 749.935C1399.64 754.596 1381.73 779.537 1373.46 795.341" fill="#9A9E49"/>
<path d="M1356.82 813.058C1366 798.087 1371.97 781.234 1374.2 763.855C1375.54 753.484 1375.01 741.538 1367.12 734.593C1365.34 733.019 1362.86 731.753 1360.62 732.587C1358.1 733.544 1357.26 736.6 1356.82 739.254C1353.06 761.324 1352.22 783.888 1354.31 806.175C1354.55 791.389 1354.21 776.388 1349.98 762.22C1345.79 748.051 1337.3 734.593 1324.43 727.123C1323.68 726.691 1322.84 726.259 1321.97 726.352C1320.17 726.537 1319.36 728.698 1319.14 730.488C1318.12 738.668 1320.63 746.847 1323.34 754.626C1328.62 769.936 1334.75 784.969 1341.62 799.662C1334.72 780.586 1320.42 764.226 1302.32 754.75C1298.71 752.867 1293.55 751.57 1291.16 754.842C1290.32 755.984 1290.1 757.435 1290.07 758.855C1289.91 765.491 1293.89 771.48 1298.06 776.696C1308.07 789.228 1320.14 800.186 1333.6 808.984C1324.83 798.89 1312.7 791.698 1299.58 788.889C1297.94 788.549 1296.13 788.272 1294.7 789.136C1291.78 790.864 1292.81 795.309 1294.61 798.149C1300.86 808.058 1311.74 813.984 1322.13 819.448C1331.42 824.356 1341.96 829.387 1352.04 826.393C1360.28 823.923 1363.91 817.071 1370.16 812.07C1375.79 807.595 1380.11 804.292 1383.44 797.47C1384.4 795.495 1385.15 793.056 1383.91 791.266C1382.88 789.815 1380.8 789.414 1379.06 789.846C1370.5 791.976 1362.33 803.397 1358.53 810.62" fill="#89893A"/>
<path d="M1580.44 630.937C1572.51 620.257 1556.9 617.417 1544.12 621.337C1531.38 625.289 1521.08 634.703 1512.47 644.858C1492.57 668.287 1479.23 697.117 1474.26 727.336C1466.98 718.014 1453.52 714.032 1442.3 717.891C1431.07 721.718 1422.96 733.108 1423.02 744.9C1421.31 735.238 1408.75 730.824 1399.39 733.942C1390.03 737.059 1383.32 745.085 1377.16 752.74C1353 732.337 1311.99 736.38 1292.34 761.105C1262.34 725.577 1203.42 718.971 1166.2 746.937C1148.48 729.065 1113.94 733.139 1100.94 754.654C1098.79 758.204 1097.05 762.216 1093.6 764.5C1086.89 768.945 1078.05 764.655 1070 764.068C1046.37 762.401 1034.53 791.448 1029.99 814.536C1169.43 849.293 1315.1 848.151 1458.87 846.793C1486.73 846.546 1514.62 846.268 1542.48 846.021C1548.6 845.96 1555.25 845.713 1559.92 841.792C1565.42 837.162 1566.17 829.137 1566.51 822.006C1569.59 758.852 1580.44 690.511 1580.44 630.937Z" fill="#7F7F33"/>
<path d="M1211.16 575.995C1222.97 577.107 1234.14 578.094 1244.27 578.928C1247.54 579.206 1250.71 579.453 1253.76 579.7C1254.28 579.761 1254.81 579.792 1255.34 579.854C1272.29 581.15 1285.41 581.953 1292.47 581.953C1307.95 581.953 1332.17 583.157 1356.89 583.558C1368.21 583.743 1379.68 583.743 1390.44 583.404C1390.53 583.095 1390.59 582.786 1390.62 582.478C1391.03 579.051 1388.73 575.934 1386.15 573.619C1381.64 569.606 1375.85 566.951 1369.88 566.025C1376.85 565.47 1383.38 559.975 1385.31 553.123C1387.64 544.788 1384.03 535.559 1377.66 529.694C1371.28 523.799 1362.58 520.959 1353.9 520.125C1347.4 519.508 1340.53 520.002 1335 523.428C1333.44 524.385 1332.05 525.651 1330.86 527.071C1331.02 525.404 1331.05 523.706 1330.93 522.008C1330.46 515.897 1327.1 509.6 1321.35 507.439C1317.25 505.896 1312.64 506.606 1308.35 507.562C1298.93 509.723 1289.73 512.933 1281.05 517.131C1275.02 520.064 1268.31 525.651 1270.45 531.948C1267.62 521.545 1262.62 511.699 1255.84 503.272C1251.92 498.395 1246.01 493.61 1240.04 495.493C1236.66 496.574 1234.26 499.599 1232.46 502.654C1222.1 519.971 1224 543.677 1236.97 559.173C1231.9 553.462 1225 549.357 1217.53 547.628C1198.04 543.122 1203.29 564.544 1211.16 575.995Z" fill="#9A9E49"/>
<path d="M1251.64 558C1252.92 565.254 1254.47 572.57 1255.34 579.854C1272.29 581.151 1285.41 581.953 1292.47 581.953C1307.95 581.953 1332.17 583.157 1356.89 583.558C1358.07 579.052 1354.68 574.02 1350.27 572.107C1345.45 569.977 1339.91 570.501 1334.69 571.088C1340.19 567.415 1338.2 558.031 1332.54 554.605C1326.88 551.148 1319.61 552.012 1313.17 553.648C1316.06 547.752 1312.15 540.066 1305.99 537.659C1299.83 535.282 1292.56 537.535 1287.68 541.949C1282.83 546.394 1280.09 552.691 1278.47 559.05C1275.08 554.45 1271.14 550.252 1266.75 546.579C1263.74 544.079 1259.79 541.702 1256.09 542.999C1250.68 544.943 1250.68 552.413 1251.64 558Z" fill="#89893A"/>
<path d="M749.786 791.542C757.776 792.529 765.892 791.017 772.203 789.134C778.484 787.251 782.774 785.121 782.774 785.121C782.774 785.121 780.505 781.849 776.245 778.238C771.985 774.626 765.518 770.86 757.528 769.78C741.329 767.743 724.912 777.559 724.912 777.559C724.912 777.559 727.182 780.584 731.442 783.794C735.732 786.942 741.795 790.554 749.786 791.542Z" fill="#505123"/>
<path d="M817.473 781.169C816.26 788.917 812.218 795.955 808.611 800.955C804.974 805.987 801.709 809.043 801.709 809.043C801.709 809.043 799.657 805.956 797.947 800.955C796.144 796.017 794.682 789.133 795.926 781.385C798.258 766.013 810.601 752.895 810.601 752.895C810.601 752.895 812.933 756.043 814.985 761.136C817.1 766.23 818.685 773.422 817.473 781.169Z" fill="#505123"/>
<path d="M707.718 703.971L711.356 705.082C768.286 758.791 816.602 821.174 854.628 888.99L851.177 890.935C813.462 822.101 765.021 758.699 707.718 703.971Z" fill="#7B8131"/>
<path d="M692.795 701.809C698.826 706.995 705.698 710.143 711.325 711.841C714.124 712.674 716.518 713.261 718.228 713.631C719.938 713.971 720.964 714.094 720.964 714.094C720.964 714.094 720.808 713.076 720.404 711.378C720 709.68 719.316 707.273 718.228 704.587C715.989 699.216 712.382 692.24 706.195 686.931C703.117 684.246 699.79 682.147 696.526 680.541C693.199 678.967 689.965 677.887 687.105 677.146C681.415 675.634 677.311 675.479 677.311 675.479C677.311 675.479 678.212 679.492 680.606 684.77C681.819 687.425 683.374 690.357 685.395 693.29C687.353 696.222 689.779 699.216 692.795 701.809Z" fill="#505123"/>
<path d="M717.326 756.598C733.214 757.71 749.817 748.079 749.817 748.079C749.817 748.079 747.33 744.961 742.822 741.658C738.376 738.294 731.66 734.96 723.576 734.405C715.523 733.818 707.408 736.38 701.47 738.973C695.5 741.566 691.551 744.282 691.551 744.282C691.551 744.282 694.007 747.153 698.485 750.054C702.993 752.956 709.305 756.104 717.326 756.598Z" fill="#505123"/>
<path d="M752.646 703.105C752.086 718.971 740.582 732.769 740.582 732.769C740.582 732.769 738.126 729.991 735.732 725.237C733.4 720.453 731.006 713.847 731.193 706.038C731.41 698.197 734.146 690.635 736.789 685.079C739.463 679.492 742.106 675.88 742.106 675.88C742.106 675.88 742.79 676.59 743.816 677.887C744.873 679.183 746.21 681.097 747.547 683.535C750.221 688.412 752.926 695.172 752.646 703.105Z" fill="#505123"/>
<path d="M786.443 741.073C784.857 756.847 772.483 769.904 772.483 769.904C772.483 769.904 770.213 766.971 768.192 762.063C766.171 757.155 764.15 750.457 764.896 742.648C765.643 734.807 768.783 727.523 771.83 722.121C774.846 716.719 777.737 713.262 777.737 713.262C777.737 713.262 780.287 716.256 782.681 721.226C785.013 726.226 787.158 733.233 786.443 741.073Z" fill="#505123"/>
<path d="M775.623 829.787C783.49 831.268 791.791 830.157 798.134 828.675C804.477 827.194 808.923 825.311 808.923 825.311C808.923 825.311 806.902 821.885 802.86 818.057C798.756 814.291 792.693 810.032 784.733 808.55C776.743 807.068 768.503 808.519 762.254 810.34C756.035 812.161 751.745 814.384 751.745 814.384C751.745 814.384 753.828 817.532 757.839 820.989C759.86 822.718 762.347 824.539 765.332 826.113C768.255 827.688 771.675 829.015 775.623 829.787Z" fill="#505123"/>
<path d="M849.187 823.952C847.477 831.607 843 838.336 839.051 843.121C835.102 847.905 831.62 850.745 831.62 850.745C831.62 850.745 829.817 847.504 828.386 842.442C826.925 837.38 825.93 830.434 827.671 822.779C830.998 807.592 844.212 795.307 844.212 795.307C844.212 795.307 846.327 798.61 848.037 803.827C849.809 808.981 850.897 816.297 849.187 823.952Z" fill="#505123"/>
<path d="M1434.01 651.187C1449.43 659.398 1468.49 656.465 1468.49 656.465C1468.49 656.465 1467.06 652.113 1463.58 646.742C1460.16 641.371 1454.65 634.92 1446.85 630.753C1431.21 622.388 1412.25 626.277 1412.25 626.277C1412.25 626.277 1418.56 642.853 1434.01 651.187Z" fill="#1B1B0C"/>
<path d="M1414.67 541.576L1417.97 544.262C1438.36 584.142 1457.48 624.702 1474.15 666.219C1482.3 687.023 1489.23 708.414 1492.99 730.392C1496.85 752.308 1496.94 774.965 1491.93 796.541L1488.08 795.677C1493.24 774.471 1493.24 751.999 1489.54 730.052C1485.81 708.075 1479 686.499 1470.85 665.447C1462.71 644.365 1453.54 623.591 1444.21 602.91C1434.79 582.29 1424.93 561.825 1414.67 541.576Z" fill="#484B1C"/>
<path d="M1400.43 532.841C1409.17 548.892 1424.93 557.597 1424.93 557.597C1424.93 557.597 1427.01 539.693 1418.12 523.334C1409.26 506.974 1393.03 498.887 1393.03 498.887C1393.03 498.887 1391.73 516.79 1400.43 532.841Z" fill="#1B1B0C"/>
<path d="M1409.88 600.748C1425.61 608.526 1444.58 604.792 1444.58 604.792C1444.58 604.792 1437.96 587.691 1422.01 579.882C1406.09 572.072 1387.28 576.61 1387.28 576.61C1387.28 576.61 1389.02 580.715 1392.69 585.777C1396.39 590.839 1402.02 596.859 1409.88 600.748Z" fill="#1B1B0C"/>
<path d="M1459.41 559.141C1454.5 575.192 1439.36 585.1 1439.36 585.1C1439.36 585.1 1432.61 569.481 1437.4 553.523C1442.19 537.533 1456.92 527.131 1456.92 527.131C1456.92 527.131 1464.32 543.09 1459.41 559.141Z" fill="#1B1B0C"/>
<path d="M1449.96 700.82C1457.05 705.173 1465.41 707.179 1471.97 708.198C1478.56 709.216 1483.42 709.093 1483.42 709.093C1483.42 709.093 1482.51 704.679 1479.75 699.03C1476.92 693.412 1472.1 686.59 1464.64 682.084C1457.2 677.546 1448.62 676.126 1442 675.818C1435.38 675.509 1430.62 676.312 1430.62 676.312C1430.62 676.312 1431.9 680.355 1435.04 685.418C1436.53 687.918 1438.49 690.696 1441.01 693.381C1443.37 696.036 1446.38 698.629 1449.96 700.82Z" fill="#1B1B0C"/>
<path d="M1430.42 332.975L1434.12 335.074C1460.95 371.034 1486.6 407.828 1510.01 446.042C1521.55 465.211 1531.96 485.151 1539.36 506.203C1546.86 527.193 1550.74 549.479 1549.41 571.58L1545.46 571.364C1546.98 549.602 1543.19 527.47 1535.85 506.419C1528.48 485.367 1518.16 465.242 1506.56 445.826C1494.96 426.411 1482.47 407.427 1469.78 388.598C1457.09 369.8 1443.94 351.279 1430.42 332.975Z" fill="#7B8131"/>
<path d="M1414.93 326.77C1426.25 341.154 1443.26 347.142 1443.26 347.142C1443.26 347.142 1442.33 329.146 1430.79 314.484C1419.29 299.822 1401.94 294.544 1401.94 294.544C1401.94 294.544 1403.65 312.354 1414.93 326.77Z" fill="#505123"/>
<path d="M1435.67 392.147C1452.49 397.209 1470.59 390.387 1470.59 390.387C1470.59 390.387 1461.17 374.614 1444.13 369.552C1427.12 364.489 1409.34 372.083 1409.34 372.083C1409.34 372.083 1411.73 375.849 1416.21 380.232C1420.69 384.615 1427.25 389.616 1435.67 392.147Z" fill="#505123"/>
<path opacity="0.59" d="M1104.64 665.384C1093.48 666.249 1082.31 667.422 1071.12 667.761C1043.82 668.595 1016.65 664.489 989.66 660.353C985.992 659.797 981.483 658.532 980.768 654.889C980.457 653.284 980.986 651.679 981.328 650.074C982.82 642.944 972.715 633.591 966.59 629.609C973.275 625.01 988.292 633.653 995.785 636.77C1006.45 641.184 1018.67 636.955 1030.14 638.252C1037.26 639.054 1043.95 641.956 1050.88 643.808C1067.27 648.129 1084.55 646.247 1101.5 645.784C1110.79 645.537 1183.33 647.45 1181.87 657.359C1180.53 666.557 1156.13 663.841 1151.28 663.81C1135.73 663.656 1120.15 664.18 1104.64 665.384Z" fill="#394559"/>
<path d="M1112.19 483.084C1113.81 489.875 1131.5 545.097 1141.79 580.718C1145.83 594.732 1148.76 605.69 1149.07 609.486H1175.9C1175.9 609.486 1175.53 597.047 1175.06 580.718C1174.28 555.067 1173.26 519.755 1172.92 507.747C1172.36 488.147 1161.07 466.015 1161.07 466.015L1166.67 431.875L1116.17 445.766C1112.19 460.304 1109.89 473.608 1112.19 483.084Z" fill="#DBA782"/>
<path d="M1169.25 580.717H1175.06C1174.28 555.035 1173.26 519.723 1172.89 507.746C1172.33 488.176 1161.04 466.013 1161.04 466.013L1164.89 442.554L1147.76 437.06L1116.14 445.764C1113.9 454.099 1112.13 461.97 1111.51 469.008C1123.95 472.403 1149.81 470.335 1156.06 478.762C1163.78 489.133 1171.45 535.002 1170.9 557.844C1170.71 566.919 1169.96 574.08 1169.25 580.717Z" fill="#D1866F"/>
<path d="M1175.9 609.486H1149.07L1141.79 580.718H1175.03L1175.9 609.486Z" fill="white"/>
<path d="M1175.9 609.486C1177.11 617.172 1184.82 633.377 1186.81 641.094C1188.8 648.811 1190.45 660.17 1179.91 661.282C1169.37 662.393 1148.29 659.8 1136.44 661.282C1124.6 662.763 1115.36 661.652 1112.07 656.158C1108.77 650.663 1120.74 642.329 1130.94 637.575C1141.14 632.791 1149.07 609.517 1149.07 609.517H1175.9V609.486Z" fill="#3B4150"/>
<path d="M1167.97 609.486H1175.87L1175.81 606.986C1175.78 606.461 1175.78 605.844 1175.74 605.165L1175.03 580.718H1169.22C1168.25 589.978 1167.32 598.25 1167.97 609.486Z" fill="#EFEDED"/>
<path d="M1175.81 606.987L1175.87 609.488H1175.9C1175.9 609.488 1175.87 608.592 1175.81 606.987Z" fill="#D1866F"/>
<path d="M1111.51 654.553C1111.57 655.108 1111.76 655.633 1112.04 656.127C1115.33 661.621 1124.54 662.701 1136.41 661.251C1148.26 659.8 1169.31 662.362 1179.85 661.251C1190.39 660.17 1188.74 648.78 1186.78 641.094C1184.79 633.377 1177.08 617.203 1175.84 609.486H1167.94C1167.97 610.443 1168.03 611.462 1168.13 612.48C1169.78 633.686 1176.96 644.181 1170.93 652.762C1164.89 661.374 1129.05 657.053 1120.56 656.59C1117.95 656.435 1114.71 655.571 1111.51 654.553Z" fill="#2F343F"/>
<path d="M1019.17 580.718C1019.82 594.546 1020.07 606.152 1019.35 612.449H1048.02C1048.02 612.449 1050.82 598.25 1053.96 580.718C1057.56 560.592 1061.7 536.053 1062.66 523.366C1064.5 499.567 1060.83 471.663 1062.66 469.626C1064.5 467.589 1084.65 427.43 1081.6 425.424C1078.55 423.356 1024.86 425.424 1024.86 425.424C1019.97 438.357 1015.06 464.193 1013.88 482.559C1013.01 495.74 1017.49 545.436 1019.17 580.718Z" fill="#DBA782"/>
<path d="M1019.35 612.448H1048.02C1048.02 612.448 1050.82 598.249 1053.96 580.716H1019.13C1019.82 594.545 1020.07 606.151 1019.35 612.448Z" fill="white"/>
<path d="M1048.64 609.486C1047.49 616.493 1048.8 633.377 1050.79 641.094C1052.78 648.811 1054.42 660.17 1043.88 661.282C1033.34 662.393 1018.86 659.8 1007.01 661.282C995.163 662.763 985.929 661.652 982.633 656.158C979.337 650.663 986.924 644.767 997.122 640.014C1007.32 635.229 1019.63 609.517 1019.63 609.517H1048.64V609.486Z" fill="#3B4150"/>
<path d="M1047.83 572.508C1047.09 575.379 1046.34 578.126 1045.69 580.719H1053.96C1057.56 560.594 1061.73 536.054 1062.66 523.337C1064.5 499.538 1060.86 471.634 1062.66 469.627C1063.85 468.331 1072.36 451.724 1077.65 439.223C1072.71 432.957 1067.92 427.833 1067.92 427.833L1058.31 424.499C1042.64 424.715 1024.86 425.394 1024.86 425.394C1021.47 434.346 1018.11 449.378 1015.93 463.917C1031.29 470.739 1055.64 469.072 1059 481.789C1063.04 497.13 1053.99 548.771 1047.83 572.508Z" fill="#D1866F"/>
<path d="M1040 609.489H1048.64C1049.61 604.396 1051.69 593.469 1053.96 580.721H1045.69C1042.76 591.802 1040.62 600.599 1040 609.489Z" fill="#EFEDED"/>
<path d="M982.447 655.883C982.509 655.975 982.54 656.068 982.602 656.16C985.898 661.655 995.132 662.735 1006.98 661.284C1018.82 659.834 1033.31 662.396 1043.85 661.284C1054.39 660.204 1052.75 648.814 1050.79 641.128C1048.8 633.442 1047.49 616.712 1048.61 609.643C1048.64 609.612 1048.64 609.551 1048.64 609.52H1040C1039.94 610.508 1039.87 611.526 1039.84 612.514C1039.66 617.669 1040.09 622.947 1041.21 628.843C1044.97 648.382 1044.01 658.136 1024.36 657.21C1006.73 656.315 992.894 660.358 982.447 655.883Z" fill="#2F343F"/>
<path d="M1090.99 92.1184C1091.8 96.0077 1087.72 120.516 1087.72 120.516C1087.72 120.516 1124.75 119.004 1125.07 116.72C1125.38 114.466 1120.84 92.1184 1120.84 92.1184H1090.99Z" fill="#DBA782"/>
<path d="M1070.93 51.0027C1063.75 75.2953 1071.59 97.952 1073.55 100.545C1075.5 103.138 1090.99 103.138 1090.99 103.138L1125.07 101.533L1119.19 68.8132L1098.33 51.0027H1070.93Z" fill="#DBA782"/>
<path d="M1071.25 48.4088C1071.81 51.3721 1076.47 62.8547 1081.44 74.5226C1087.2 88.166 1093.38 102.087 1094.1 103.137C1095.4 105.081 1122.49 101.532 1125.07 101.532C1127.68 101.532 1160.17 72.1458 1159.7 60.8175C1159.7 60.6632 1159.7 60.5088 1159.67 60.4162C1158.37 49.4274 1141.73 29.0241 1132.93 24.147C1124.1 19.3008 1094.75 23.1901 1091.02 24.147C1091.02 24.147 1093.13 20.2577 1091.02 18.3131C1088.87 16.3376 1065.71 20.5664 1071.25 48.4088Z" fill="#684330"/>
<path opacity="0.39" d="M1081.44 74.5213C1087.2 88.1647 1093.38 102.086 1094.1 103.135C1095.4 105.08 1122.49 101.53 1125.07 101.53C1127.68 101.53 1160.17 72.1445 1159.7 60.8162C1139.31 72.268 1089.53 65.508 1086.01 66.4649C1084.68 66.7736 1083.03 70.2307 1081.44 74.5213Z" fill="#684330"/>
<path d="M1078.37 72.3613C1078.24 71.8057 1078.18 71.2501 1078.18 70.7562C1077.93 62.6381 1089.31 63.0394 1090.99 69.1203C1092.79 75.6024 1087.57 90.1718 1082.66 88.8754C1077.77 87.5789 1078.37 72.3613 1078.37 72.3613Z" fill="#DBA782"/>
<path d="M1079.98 74.5832C1079.92 74.3053 1079.89 74.0276 1079.89 73.7806C1079.76 69.7061 1085.45 69.9222 1086.29 72.9781C1087.2 76.2192 1084.58 83.5039 1082.13 82.8556C1079.67 82.1766 1079.98 74.5832 1079.98 74.5832Z" fill="#D1866F"/>
<g filter="url(#filter0_d_546_6433)">
<rect x="1143" y="0" width="214.16" height="66.84" rx="18.36" fill="#F5F5F4" shape-rendering="crispEdges"/>
<g filter="url(#filter1_d_546_6433)">
<rect x="1161.36" y="6.93994" width="48.96" height="48.96" rx="12.24" fill="#214254"/>
<g clip-path="url(#clip1_546_6433)">
<path d="M1188.7 41.3499H1182.4L1181.65 39.3249H1170.32V20.0499C1170.32 19.1499 1171.07 18.3999 1171.97 18.3999H1200.02C1200.92 18.3999 1201.67 19.1499 1201.67 20.0499V39.3999H1190.2L1188.7 41.3499ZM1183.22 40.2249H1188.17L1189.67 38.1999H1200.55V20.0499C1200.55 19.7499 1200.32 19.5249 1200.02 19.5249H1171.97C1171.67 19.5249 1171.45 19.7499 1171.45 20.0499V38.2749H1182.47L1183.22 40.2249Z" fill="white"/>
<path d="M1198.6 43.6H1173.4C1170.7 43.6 1168.52 41.425 1168.52 38.725V38.125H1182.4L1183.15 40.15H1188.1L1189.6 38.125H1203.4V38.725C1203.47 41.425 1201.22 43.6 1198.6 43.6ZM1169.72 39.325C1170.02 41.125 1171.52 42.475 1173.4 42.475H1198.52C1200.4 42.475 1201.97 41.125 1202.2 39.325H1190.2L1188.7 41.35H1182.4L1181.65 39.325H1169.72Z" fill="white"/>
<path d="M1180.52 22.375H1174.75V27.4H1180.52V22.375Z" fill="white"/>
<path d="M1181.05 27.9249H1174.15V21.7749H1181.05V27.9249ZM1175.27 26.7999H1179.92V22.8999H1175.27V26.7999Z" fill="white"/>
<path d="M1180.52 30.325H1174.75V35.3499H1180.52V30.325Z" fill="white"/>
<path d="M1181.05 35.95H1174.15V29.8H1181.05V35.95ZM1175.27 34.825H1179.92V30.925H1175.27V34.825Z" fill="white"/>
<path d="M1197.55 24.25H1184.12V25.375H1197.55V24.25Z" fill="white"/>
<path d="M1197.55 32.2749H1184.12V33.3999H1197.55V32.2749Z" fill="white"/>
</g>
</g>
<path d="M1236.27 28.3601V25.5902L1242.74 19.5977C1243.29 19.065 1243.76 18.5856 1244.13 18.1595C1244.51 17.7333 1244.8 17.3161 1244.99 16.9077C1245.19 16.4934 1245.28 16.0465 1245.28 15.5671C1245.28 15.0345 1245.16 14.5758 1244.92 14.1911C1244.68 13.8004 1244.35 13.5016 1243.93 13.2944C1243.51 13.0813 1243.03 12.9748 1242.5 12.9748C1241.94 12.9748 1241.45 13.0873 1241.04 13.3122C1240.63 13.5371 1240.31 13.8596 1240.08 14.2799C1239.86 14.7001 1239.74 15.2002 1239.74 15.7802H1236.09C1236.09 14.5906 1236.36 13.5578 1236.9 12.6818C1237.44 11.8059 1238.2 11.1282 1239.17 10.6488C1240.14 10.1694 1241.26 9.92971 1242.52 9.92971C1243.82 9.92971 1244.96 10.1605 1245.92 10.6222C1246.89 11.0779 1247.65 11.7112 1248.19 12.522C1248.73 13.3329 1248.99 14.2621 1248.99 15.3097C1248.99 15.9962 1248.86 16.6739 1248.59 17.3427C1248.32 18.0115 1247.84 18.7543 1247.16 19.571C1246.47 20.3819 1245.5 21.3555 1244.25 22.4919L1241.6 25.0931V25.2174H1249.23V28.3601H1236.27ZM1252.13 28.3601V10.1783H1255.97V18.195H1256.21L1262.75 10.1783H1267.36L1260.61 18.3193L1267.44 28.3601H1262.84L1257.86 20.885L1255.97 23.1932V28.3601H1252.13ZM1273.59 25.5902V13.0192H1276.77V25.5902H1273.59ZM1268.89 20.8938V17.7156H1281.47V20.8938H1268.89Z" fill="#101828"/>
<path opacity="0.5" d="M1236.57 43.5711L1239.81 52.7544H1239.93L1243.17 43.5711H1244.56L1240.55 54.4802H1239.19L1235.18 43.5711H1236.57ZM1246.09 54.4802V46.2984H1247.34V54.4802H1246.09ZM1246.73 44.9348C1246.48 44.9348 1246.27 44.8513 1246.09 44.6844C1245.92 44.5175 1245.83 44.3169 1245.83 44.0825C1245.83 43.8481 1245.92 43.6475 1246.09 43.4806C1246.27 43.3137 1246.48 43.2302 1246.73 43.2302C1246.97 43.2302 1247.18 43.3137 1247.35 43.4806C1247.53 43.6475 1247.62 43.8481 1247.62 44.0825C1247.62 44.3169 1247.53 44.5175 1247.35 44.6844C1247.18 44.8513 1246.97 44.9348 1246.73 44.9348ZM1252.74 54.6507C1252.05 54.6507 1251.45 54.4784 1250.93 54.134C1250.41 53.786 1250 53.2959 1249.7 52.6638C1249.41 52.0282 1249.26 51.2771 1249.26 50.4106C1249.26 49.5512 1249.41 48.8055 1249.7 48.1734C1250 47.5413 1250.41 47.053 1250.93 46.7086C1251.46 46.3641 1252.07 46.1919 1252.76 46.1919C1253.29 46.1919 1253.71 46.2807 1254.02 46.4582C1254.33 46.6322 1254.57 46.8311 1254.73 47.0548C1254.9 47.275 1255.03 47.4561 1255.12 47.5981H1255.23V43.5711H1256.49V54.4802H1255.27V53.2231H1255.12C1255.03 53.3723 1254.9 53.5605 1254.73 53.7878C1254.56 54.0115 1254.31 54.2121 1254 54.3897C1253.68 54.5637 1253.26 54.6507 1252.74 54.6507ZM1252.91 53.5214C1253.41 53.5214 1253.84 53.39 1254.18 53.1272C1254.53 52.8609 1254.8 52.4934 1254.98 52.0246C1255.16 51.5523 1255.25 51.0072 1255.25 50.3893C1255.25 49.7785 1255.16 49.2441 1254.98 48.786C1254.81 48.3243 1254.54 47.9657 1254.19 47.71C1253.85 47.4507 1253.42 47.3211 1252.91 47.3211C1252.37 47.3211 1251.93 47.4579 1251.57 47.7313C1251.22 48.0012 1250.96 48.3687 1250.78 48.8339C1250.61 49.2956 1250.52 49.814 1250.52 50.3893C1250.52 50.9717 1250.61 51.5008 1250.79 51.9767C1250.97 52.449 1251.23 52.8254 1251.58 53.1059C1251.94 53.3829 1252.38 53.5214 1252.91 53.5214ZM1262.39 54.6507C1261.6 54.6507 1260.92 54.4767 1260.35 54.1287C1259.78 53.7771 1259.35 53.287 1259.04 52.6585C1258.73 52.0264 1258.58 51.2913 1258.58 50.4532C1258.58 49.6152 1258.73 48.8765 1259.04 48.2373C1259.35 47.5946 1259.78 47.0939 1260.33 46.7352C1260.88 46.373 1261.53 46.1919 1262.26 46.1919C1262.69 46.1919 1263.11 46.2629 1263.53 46.4049C1263.94 46.547 1264.32 46.7778 1264.66 47.0974C1265 47.4135 1265.27 47.8325 1265.48 48.3545C1265.68 48.8765 1265.78 49.5193 1265.78 50.2828V50.8155H1259.47V49.7288H1264.5C1264.5 49.2672 1264.41 48.8552 1264.22 48.493C1264.04 48.1308 1263.78 47.8449 1263.45 47.6354C1263.11 47.4259 1262.72 47.3211 1262.26 47.3211C1261.76 47.3211 1261.33 47.4454 1260.96 47.694C1260.6 47.939 1260.32 48.2586 1260.13 48.6528C1259.93 49.047 1259.84 49.4696 1259.84 49.9206V50.645C1259.84 51.2629 1259.94 51.7867 1260.16 52.2164C1260.37 52.6425 1260.67 52.9674 1261.06 53.1912C1261.44 53.4113 1261.88 53.5214 1262.39 53.5214C1262.72 53.5214 1263.02 53.4753 1263.29 53.3829C1263.56 53.287 1263.79 53.145 1263.99 52.9568C1264.18 52.765 1264.33 52.5271 1264.44 52.243L1265.65 52.5839C1265.52 52.9958 1265.31 53.3581 1265.01 53.6706C1264.71 53.9795 1264.33 54.221 1263.89 54.395C1263.45 54.5655 1262.95 54.6507 1262.39 54.6507ZM1271.02 54.6507C1270.28 54.6507 1269.63 54.4749 1269.07 54.1233C1268.52 53.7718 1268.08 53.2799 1267.77 52.6478C1267.46 52.0157 1267.31 51.2771 1267.31 50.4319C1267.31 49.5797 1267.46 48.8357 1267.77 48.2C1268.08 47.5644 1268.52 47.0708 1269.07 46.7192C1269.63 46.3677 1270.28 46.1919 1271.02 46.1919C1271.76 46.1919 1272.4 46.3677 1272.96 46.7192C1273.51 47.0708 1273.95 47.5644 1274.26 48.2C1274.57 48.8357 1274.72 49.5797 1274.72 50.4319C1274.72 51.2771 1274.57 52.0157 1274.26 52.6478C1273.95 53.2799 1273.51 53.7718 1272.96 54.1233C1272.4 54.4749 1271.76 54.6507 1271.02 54.6507ZM1271.02 53.5214C1271.58 53.5214 1272.04 53.3776 1272.4 53.09C1272.76 52.8023 1273.03 52.4241 1273.21 51.9554C1273.38 51.4866 1273.47 50.9788 1273.47 50.4319C1273.47 49.8851 1273.38 49.3755 1273.21 48.9032C1273.03 48.4309 1272.76 48.0491 1272.4 47.7579C1272.04 47.4667 1271.58 47.3211 1271.02 47.3211C1270.46 47.3211 1269.99 47.4667 1269.63 47.7579C1269.27 48.0491 1269 48.4309 1268.83 48.9032C1268.65 49.3755 1268.57 49.8851 1268.57 50.4319C1268.57 50.9788 1268.65 51.4866 1268.83 51.9554C1269 52.4241 1269.27 52.8023 1269.63 53.09C1269.99 53.3776 1270.46 53.5214 1271.02 53.5214ZM1289.81 46.9802H1288.49C1288.41 46.6003 1288.27 46.2664 1288.08 45.9788C1287.89 45.6912 1287.65 45.4497 1287.38 45.2544C1287.1 45.0555 1286.8 44.9064 1286.47 44.8069C1286.13 44.7075 1285.78 44.6578 1285.42 44.6578C1284.76 44.6578 1284.16 44.8247 1283.63 45.1585C1283.09 45.4923 1282.67 45.9841 1282.35 46.634C1282.04 47.2838 1281.88 48.0811 1281.88 49.0257C1281.88 49.9703 1282.04 50.7675 1282.35 51.4174C1282.67 52.0672 1283.09 52.5591 1283.63 52.8929C1284.16 53.2267 1284.76 53.3936 1285.42 53.3936C1285.78 53.3936 1286.13 53.3439 1286.47 53.2444C1286.8 53.145 1287.1 52.9976 1287.38 52.8023C1287.65 52.6034 1287.89 52.3602 1288.08 52.0726C1288.27 51.7814 1288.41 51.4476 1288.49 51.0711H1289.81C1289.71 51.6287 1289.53 52.1276 1289.27 52.5679C1289 53.0083 1288.68 53.3829 1288.29 53.6919C1287.9 53.9973 1287.46 54.2299 1286.97 54.3897C1286.49 54.5495 1285.97 54.6294 1285.42 54.6294C1284.49 54.6294 1283.66 54.4021 1282.94 53.9476C1282.21 53.493 1281.64 52.8467 1281.23 52.0086C1280.81 51.1706 1280.61 50.1762 1280.61 49.0257C1280.61 47.8751 1280.81 46.8808 1281.23 46.0427C1281.64 45.2047 1282.21 44.5583 1282.94 44.1038C1283.66 43.6493 1284.49 43.422 1285.42 43.422C1285.97 43.422 1286.49 43.5019 1286.97 43.6617C1287.46 43.8215 1287.9 44.0559 1288.29 44.3648C1288.68 44.6702 1289 45.0431 1289.27 45.4834C1289.53 45.9202 1289.71 46.4191 1289.81 46.9802ZM1295.1 54.6507C1294.36 54.6507 1293.71 54.4749 1293.15 54.1233C1292.6 53.7718 1292.17 53.2799 1291.85 52.6478C1291.55 52.0157 1291.39 51.2771 1291.39 50.4319C1291.39 49.5797 1291.55 48.8357 1291.85 48.2C1292.17 47.5644 1292.6 47.0708 1293.15 46.7192C1293.71 46.3677 1294.36 46.1919 1295.1 46.1919C1295.84 46.1919 1296.48 46.3677 1297.04 46.7192C1297.59 47.0708 1298.03 47.5644 1298.34 48.2C1298.65 48.8357 1298.81 49.5797 1298.81 50.4319C1298.81 51.2771 1298.65 52.0157 1298.34 52.6478C1298.03 53.2799 1297.59 53.7718 1297.04 54.1233C1296.48 54.4749 1295.84 54.6507 1295.1 54.6507ZM1295.1 53.5214C1295.66 53.5214 1296.12 53.3776 1296.48 53.09C1296.85 52.8023 1297.11 52.4241 1297.29 51.9554C1297.46 51.4866 1297.55 50.9788 1297.55 50.4319C1297.55 49.8851 1297.46 49.3755 1297.29 48.9032C1297.11 48.4309 1296.85 48.0491 1296.48 47.7579C1296.12 47.4667 1295.66 47.3211 1295.1 47.3211C1294.54 47.3211 1294.08 47.4667 1293.71 47.7579C1293.35 48.0491 1293.08 48.4309 1292.91 48.9032C1292.74 49.3755 1292.65 49.8851 1292.65 50.4319C1292.65 50.9788 1292.74 51.4866 1292.91 51.9554C1293.08 52.4241 1293.35 52.8023 1293.71 53.09C1294.08 53.3776 1294.54 53.5214 1295.1 53.5214ZM1305.88 51.1351V46.2984H1307.14V54.4802H1305.88V53.0953H1305.8C1305.6 53.5108 1305.31 53.8641 1304.9 54.1553C1304.5 54.4429 1303.98 54.5868 1303.37 54.5868C1302.86 54.5868 1302.4 54.4749 1302 54.2512C1301.61 54.0239 1301.29 53.683 1301.07 53.2284C1300.84 52.7704 1300.72 52.1933 1300.72 51.4973V46.2984H1301.98V51.412C1301.98 52.0086 1302.15 52.4845 1302.48 52.8396C1302.82 53.1947 1303.25 53.3723 1303.77 53.3723C1304.08 53.3723 1304.4 53.2924 1304.73 53.1326C1305.05 52.9728 1305.33 52.7277 1305.55 52.3975C1305.77 52.0672 1305.88 51.6464 1305.88 51.1351ZM1309.44 54.4802V46.2984H1310.66V47.5342H1310.74C1310.89 47.1294 1311.16 46.8009 1311.55 46.5488C1311.94 46.2966 1312.38 46.1706 1312.87 46.1706C1312.96 46.1706 1313.08 46.1723 1313.22 46.1759C1313.36 46.1794 1313.46 46.1848 1313.53 46.1919V47.4703C1313.49 47.4596 1313.39 47.4436 1313.24 47.4223C1313.09 47.3975 1312.93 47.3851 1312.76 47.3851C1312.37 47.3851 1312.01 47.4685 1311.7 47.6354C1311.39 47.7988 1311.15 48.026 1310.96 48.3172C1310.79 48.6049 1310.7 48.9333 1310.7 49.3027V54.4802H1309.44ZM1320.82 48.1308L1319.69 48.4504C1319.62 48.2622 1319.51 48.0793 1319.37 47.9017C1319.24 47.7206 1319.05 47.5715 1318.82 47.4543C1318.59 47.3371 1318.29 47.2785 1317.92 47.2785C1317.42 47.2785 1317 47.3939 1316.67 47.6248C1316.34 47.852 1316.17 48.1414 1316.17 48.493C1316.17 48.8055 1316.29 49.0523 1316.51 49.2334C1316.74 49.4145 1317.1 49.5655 1317.58 49.6862L1318.79 49.9845C1319.52 50.162 1320.07 50.4337 1320.43 50.7995C1320.79 51.1617 1320.97 51.6287 1320.97 52.2004C1320.97 52.6691 1320.83 53.0882 1320.56 53.4575C1320.3 53.8268 1319.92 54.118 1319.44 54.3311C1318.96 54.5441 1318.41 54.6507 1317.77 54.6507C1316.94 54.6507 1316.25 54.4696 1315.7 54.1074C1315.15 53.7451 1314.81 53.216 1314.66 52.52L1315.85 52.2217C1315.97 52.662 1316.18 52.9923 1316.5 53.2125C1316.82 53.4326 1317.23 53.5427 1317.75 53.5427C1318.33 53.5427 1318.8 53.4184 1319.14 53.1699C1319.49 52.9177 1319.67 52.6159 1319.67 52.2643C1319.67 51.9802 1319.57 51.7423 1319.37 51.5505C1319.17 51.3552 1318.86 51.2096 1318.45 51.1137L1317.09 50.7941C1316.34 50.6166 1315.79 50.3414 1315.44 49.9685C1315.09 49.5921 1314.92 49.1216 1314.92 48.5569C1314.92 48.0953 1315.04 47.6869 1315.3 47.3318C1315.57 46.9767 1315.92 46.6979 1316.37 46.4955C1316.83 46.2931 1317.34 46.1919 1317.92 46.1919C1318.73 46.1919 1319.36 46.3694 1319.83 46.7245C1320.29 47.0797 1320.62 47.5484 1320.82 48.1308ZM1326.29 54.6507C1325.5 54.6507 1324.82 54.4767 1324.25 54.1287C1323.68 53.7771 1323.24 53.287 1322.93 52.6585C1322.63 52.0264 1322.48 51.2913 1322.48 50.4532C1322.48 49.6152 1322.63 48.8765 1322.93 48.2373C1323.24 47.5946 1323.67 47.0939 1324.22 46.7352C1324.78 46.373 1325.42 46.1919 1326.16 46.1919C1326.59 46.1919 1327.01 46.2629 1327.42 46.4049C1327.84 46.547 1328.22 46.7778 1328.56 47.0974C1328.9 47.4135 1329.17 47.8325 1329.37 48.3545C1329.58 48.8765 1329.68 49.5193 1329.68 50.2828V50.8155H1323.37V49.7288H1328.4C1328.4 49.2672 1328.31 48.8552 1328.12 48.493C1327.94 48.1308 1327.68 47.8449 1327.34 47.6354C1327.01 47.4259 1326.62 47.3211 1326.16 47.3211C1325.66 47.3211 1325.23 47.4454 1324.86 47.694C1324.5 47.939 1324.22 48.2586 1324.03 48.6528C1323.83 49.047 1323.73 49.4696 1323.73 49.9206V50.645C1323.73 51.2629 1323.84 51.7867 1324.05 52.2164C1324.27 52.6425 1324.57 52.9674 1324.95 53.1912C1325.34 53.4113 1325.78 53.5214 1326.29 53.5214C1326.62 53.5214 1326.92 53.4753 1327.18 53.3829C1327.45 53.287 1327.69 53.145 1327.88 52.9568C1328.08 52.765 1328.23 52.5271 1328.33 52.243L1329.55 52.5839C1329.42 52.9958 1329.21 53.3581 1328.9 53.6706C1328.6 53.9795 1328.23 54.221 1327.79 54.395C1327.34 54.5655 1326.84 54.6507 1326.29 54.6507ZM1337.38 48.1308L1336.26 48.4504C1336.18 48.2622 1336.08 48.0793 1335.94 47.9017C1335.81 47.7206 1335.62 47.5715 1335.39 47.4543C1335.15 47.3371 1334.85 47.2785 1334.49 47.2785C1333.99 47.2785 1333.57 47.3939 1333.23 47.6248C1332.9 47.852 1332.74 48.1414 1332.74 48.493C1332.74 48.8055 1332.85 49.0523 1333.08 49.2334C1333.31 49.4145 1333.66 49.5655 1334.15 49.6862L1335.36 49.9845C1336.09 50.162 1336.64 50.4337 1337 50.7995C1337.35 51.1617 1337.53 51.6287 1337.53 52.2004C1337.53 52.6691 1337.4 53.0882 1337.13 53.4575C1336.86 53.8268 1336.49 54.118 1336.01 54.3311C1335.53 54.5441 1334.97 54.6507 1334.34 54.6507C1333.5 54.6507 1332.81 54.4696 1332.27 54.1074C1331.72 53.7451 1331.37 53.216 1331.23 52.52L1332.42 52.2217C1332.53 52.662 1332.75 52.9923 1333.06 53.2125C1333.38 53.4326 1333.8 53.5427 1334.32 53.5427C1334.9 53.5427 1335.37 53.4184 1335.71 53.1699C1336.06 52.9177 1336.23 52.6159 1336.23 52.2643C1336.23 51.9802 1336.13 51.7423 1335.94 51.5505C1335.74 51.3552 1335.43 51.2096 1335.02 51.1137L1333.66 50.7941C1332.91 50.6166 1332.36 50.3414 1332 49.9685C1331.66 49.5921 1331.48 49.1216 1331.48 48.5569C1331.48 48.0953 1331.61 47.6869 1331.87 47.3318C1332.13 46.9767 1332.49 46.6979 1332.94 46.4955C1333.4 46.2931 1333.91 46.1919 1334.49 46.1919C1335.3 46.1919 1335.93 46.3694 1336.39 46.7245C1336.86 47.0797 1337.19 47.5484 1337.38 48.1308Z" fill="#101828"/>
</g>
<path d="M1016.93 452.369C1018.14 456.32 1079.17 464.87 1082.84 461.567C1086.48 458.264 1102.99 412.92 1102.99 412.92C1102.99 412.92 1105.82 454.961 1108.37 459.592C1110.89 464.191 1172.26 458.264 1174.84 452.369C1176.4 448.819 1180.78 409.339 1179.54 369.798C1178.73 343.438 1175.47 317.015 1167.1 301.242C1146.3 261.855 1051.19 301.242 1051.19 301.242C1047.96 305.1 1044.51 312.57 1041.09 322.17C1033.97 342.049 1027.09 371.033 1022.99 395.85C1016.93 432.675 1015.72 448.418 1016.93 452.369Z" fill="#FCB85B"/>
<path d="M1041.12 322.17C1068.07 354.55 1131.69 371.403 1179.54 369.798C1178.73 343.438 1175.47 317.015 1167.1 301.242C1146.3 261.855 1051.19 301.242 1051.19 301.242C1047.99 305.069 1044.54 312.539 1041.12 322.17Z" fill="#F98D5D"/>
<path d="M1047.43 227.377C1044.97 244.107 1047.43 284.111 1047.43 284.111C1046.81 295.624 1041.34 303.496 1041.93 306.521C1042.55 309.546 1093.82 310.75 1093.82 310.75C1093.82 310.75 1162.19 305.903 1165.83 303.465C1169.5 301.026 1165.83 265.899 1170.71 244.076C1175.59 222.253 1176.8 191.354 1170.71 157.431C1164.61 123.508 1140.21 120.483 1140.21 120.483H1087.72L1047.43 227.377Z" fill="#9D5965"/>
<path d="M926.605 198.823L971.129 629.609H966.621L912.707 198.823H926.605Z" fill="#936767"/>
<path d="M1017.52 207.776C1013.6 212.314 1007.13 213.826 1005.3 215.647C1003.46 217.468 954.029 236.328 950.36 235.063C946.691 233.797 940.597 221.173 938.141 221.45C935.684 221.697 929 225.957 924.709 224.722C920.449 223.518 920.449 228.951 924.709 230.772C928.968 232.593 932.637 235.063 932.637 235.063C932.637 235.063 914.946 233.396 913.112 235.125C911.277 236.853 915.568 241.082 915.568 241.082C915.568 241.082 918.615 258.059 923.496 261.084C928.378 264.109 948.525 261.084 951.572 261.084C954.619 261.084 1025.42 256.238 1031.51 251.392C1037.6 246.546 1050.51 219.074 1051.16 217.376C1051.84 215.709 1017.52 207.776 1017.52 207.776Z" fill="#DBA782"/>
<path d="M1082.84 123.539C1064.5 123.57 1049.88 125.361 1040.12 145.363C1030.36 165.365 1011.42 207.159 1011.42 209.598C1011.42 212.036 1038.88 233.242 1047.12 235.032C1055.36 236.854 1080.39 175.057 1085.86 166.568C1091.39 158.08 1095 123.539 1082.84 123.539Z" fill="#9D5965"/>
<path d="M1048.8 234.692C1063.19 222.315 1078.18 182.187 1078.18 182.187" stroke="#B27481" stroke-miterlimit="10" stroke-linecap="round"/>
<path d="M1140.21 120.514C1141.42 115.05 1142.66 110.822 1122.52 110.822C1102.37 110.822 1081.01 114.464 1079.17 115.668C1077.34 116.872 1079.17 128.385 1079.17 128.385L1140.21 120.514Z" fill="white"/>
<path d="M1102.99 412.953C1110.82 397.056 1120.56 373.01 1120.56 373.01" stroke="#F98D5D" stroke-miterlimit="10" stroke-linecap="round"/>
<path d="M1175.9 154.253C1198.1 177.188 1201.8 205.122 1198.88 220.741C1195.96 236.391 1078.55 241.083 1078.96 236.391C1079.36 231.699 1087.72 147.586 1087.72 147.586H1174.87L1175.9 154.253Z" fill="#D32F2F"/>
<path d="M1206.5 328.221C1211.25 351.742 1207.43 389.555 1203.95 390.975C1200.46 392.395 1189.33 390.975 1189.33 390.975C1189.33 390.975 1188.99 338.161 1189.33 331.401C1189.71 324.672 1206.5 328.221 1206.5 328.221Z" fill="#4C3434"/>
<path d="M1055.33 293.094C1051.1 336.802 1050.94 378.874 1055.33 379.584C1059.71 380.294 1070.41 379.584 1070.41 379.584C1070.41 379.584 1074.26 330.721 1074.17 318.065C1074.07 305.41 1055.33 293.094 1055.33 293.094Z" fill="#4C3434"/>
<path d="M1055.85 317.169C1060.52 333.097 1082.62 349.703 1120.62 353.5C1158.61 357.328 1192.26 353.037 1204.79 347.759C1211.25 345.042 1216.16 335.473 1218.78 323.713C1221.17 312.755 1221.54 299.883 1219.21 289.049C1219.21 289.049 1090.3 257.533 1084.21 257.101C1079.17 256.762 1059.87 287.197 1055.98 306.736C1055.2 310.841 1055.05 314.422 1055.85 317.169Z" fill="#D32F2F"/>
<path d="M1055.85 317.17C1060.52 333.098 1082.62 349.705 1120.62 353.501C1158.61 357.329 1192.25 353.038 1204.78 347.76C1211.25 345.044 1216.16 335.475 1218.78 323.714L1218.75 323.652C1160.35 340.907 1080.45 320.936 1067.95 309.762C1064.62 306.799 1060.42 306.151 1055.98 306.737C1055.2 310.842 1055.05 314.423 1055.85 317.17Z" fill="#214254"/>
<path d="M1075.97 126.595C1064.37 124.372 1052.81 142.337 1054.08 190.058C1055.36 237.748 1047.21 315.688 1059.24 322.078C1071.25 328.468 1083.28 317.417 1084.12 262.473C1084.96 207.498 1098.26 130.854 1075.97 126.595Z" fill="#214254"/>
<path d="M1186.19 123.539C1172.11 114.001 1093.97 114.649 1075.94 126.564C1075.94 126.564 1089.12 136.226 1088.97 158.234C1088.81 180.243 1087.44 192.157 1096.49 194.719C1105.54 197.281 1189.18 198.115 1194.74 189.595C1200.34 181.107 1202.48 134.559 1186.19 123.539Z" fill="#214254"/>
<path opacity="0.54" d="M1079.89 123.539C1095.37 130.114 1096.8 169.47 1098.08 179.317C1099.35 189.132 1125.28 188.793 1157 187.003C1188.71 185.212 1192.88 175.304 1193.31 162.37C1193.75 149.437 1188.83 126.472 1171.24 120.514" stroke="#214254" stroke-miterlimit="10" stroke-linecap="round"/>
<path d="M1219.68 207.776C1215.33 199.442 1190.82 197.867 1145.62 199.287C1100.41 200.707 1090.8 201.201 1084.06 210.276C1077.31 219.351 1076 281.364 1081.94 293.093C1087.88 304.823 1212.93 306.737 1219.65 298.125C1226.43 289.544 1227.86 223.426 1219.68 207.776Z" fill="#214254"/>
<path d="M1142.01 172.556C1142.01 176.291 1144.19 179.316 1146.86 179.316C1149.53 179.316 1151.71 176.291 1151.71 172.556C1151.71 168.821 1149.53 165.796 1146.86 165.796C1144.19 165.765 1142.01 168.821 1142.01 172.556Z" fill="white"/>
<path d="M1156.97 284.542C1154.29 284.542 1152.12 281.516 1152.12 277.782C1152.12 274.049 1154.29 271.022 1156.97 271.022C1159.64 271.022 1161.82 274.049 1161.82 277.782C1161.82 281.516 1159.64 284.542 1156.97 284.542Z" fill="white"/>
<path d="M1119.1 200.244C1129.57 207.621 1127.65 298.217 1125.81 301.211C1123.98 304.205 1103.67 300.686 1103.49 300.131C1101.53 294.482 1110.11 228.117 1098.08 202.343L1119.1 200.244Z" fill="#4C3434"/>
<path d="M1112.75 236.236H1120.68C1124.32 236.236 1127.27 239.137 1127.27 242.78V259.201C1127.27 262.813 1124.32 265.745 1120.68 265.745H1112.75C1109.12 265.745 1106.16 262.813 1106.16 259.201V242.78C1106.13 239.168 1109.12 236.236 1112.75 236.236ZM1110.11 257.411C1110.11 258.738 1111.2 259.819 1112.54 259.819H1120.9C1122.21 259.819 1123.29 258.738 1123.29 257.411V244.601C1123.29 243.274 1122.21 242.193 1120.9 242.193H1112.54C1111.2 242.193 1110.11 243.274 1110.11 244.601V257.411Z" fill="#F5E3CF"/>
<path d="M1202.3 200.398C1212.78 207.775 1210.85 298.371 1209.01 301.365C1207.18 304.359 1187.44 303.804 1186.97 303.464C1186.5 303.124 1191.82 224.629 1179.76 198.854L1202.3 200.398Z" fill="#4C3434"/>
<path d="M1195.95 236.39H1203.88C1207.52 236.39 1210.47 239.322 1210.47 242.934V259.355C1210.47 262.966 1207.52 265.899 1203.88 265.899H1195.95C1192.32 265.899 1189.36 262.966 1189.36 259.355V242.934C1189.33 239.291 1192.32 236.39 1195.95 236.39ZM1193.31 257.534C1193.31 258.861 1194.4 259.941 1195.74 259.941H1204.1C1205.41 259.941 1206.49 258.861 1206.49 257.534V244.724C1206.49 243.397 1205.41 242.316 1204.1 242.316H1195.74C1194.4 242.316 1193.31 243.397 1193.31 244.724V257.534Z" fill="#F5E3CF"/>
</g>
<defs>
<filter id="filter0_d_546_6433" x="1104.75" y="-33.89" width="290.66" height="167.34" filterUnits="userSpaceOnUse" color-interpolation-filters="sRGB">
<feFlood flood-opacity="0" result="BackgroundImageFix"/>
<feColorMatrix in="SourceAlpha" type="matrix" values="0 0 0 0 0 0 0 0 0 0 0 0 0 0 0 0 0 0 127 0" result="hardAlpha"/>
<feOffset dy="18.36"/>
<feGaussianBlur stdDeviation="19.125"/>
<feComposite in2="hardAlpha" operator="out"/>
<feColorMatrix type="matrix" values="0 0 0 0 0 0 0 0 0 0 0 0 0 0 0 0 0 0 0.15 0"/>
<feBlend mode="normal" in2="BackgroundImageFix" result="effect1_dropShadow_546_6433"/>
<feBlend mode="normal" in="SourceGraphic" in2="effect1_dropShadow_546_6433" result="shape"/>
</filter>
<filter id="filter1_d_546_6433" x="1123.11" y="-12.9501" width="125.46" height="125.46" filterUnits="userSpaceOnUse" color-interpolation-filters="sRGB">
<feFlood flood-opacity="0" result="BackgroundImageFix"/>
<feColorMatrix in="SourceAlpha" type="matrix" values="0 0 0 0 0 0 0 0 0 0 0 0 0 0 0 0 0 0 127 0" result="hardAlpha"/>
<feOffset dy="18.36"/>
<feGaussianBlur stdDeviation="19.125"/>
<feComposite in2="hardAlpha" operator="out"/>
<feColorMatrix type="matrix" values="0 0 0 0 0.0509804 0 0 0 0 0.0470588 0 0 0 0 0.219608 0 0 0 0.15 0"/>
<feBlend mode="normal" in2="BackgroundImageFix" result="effect1_dropShadow_546_6433"/>
<feBlend mode="normal" in="SourceGraphic" in2="effect1_dropShadow_546_6433" result="shape"/>
</filter>
<clipPath id="clip0_546_6433">
<rect width="1440" height="851" fill="white"/>
</clipPath>
<clipPath id="clip1_546_6433">
<rect width="36" height="36" fill="white" transform="translate(1168 13)"/>
</clipPath>
</defs>
</svg>
